<svg xmlns="http://www.w3.org/2000/svg" viewBox="0 0 1024 1024"><defs><style>.cls-1{fill:#f4ccc7;}.cls-2{fill:#56bb6a;}.cls-3{fill:#f9b098;}.cls-4{fill:#f48032;}.cls-5{fill:#fff;}.cls-6{fill:#ef9f34;}.cls-7{fill:#8a4299;}.cls-8{fill:#a86dae;}.cls-9{fill:#a96eae;}.cls-10{fill:#c84f49;}.cls-11{fill:#ccdef2;}.cls-12{fill:#4f469c;}.cls-13{fill:#5f95cf;}.cls-14{fill:#f5933d;}.cls-15{fill:#837ab9;}</style></defs><title>Maintenance Product Illustration</title><g id="Maintenance_Product_Illustration" data-name="Maintenance  Product  Illustration"><path class="cls-1" d="M440.12,678h.23a65.62,65.62,0,1,1-.23,0ZM699.21,256c24.36,0,52.67,6,85.62,21,47.69,21.75,78.78,69.83,85.23,128.34s-11.8,127.4-62.88,190.58c-82,101.5-175.84,170.59-303.88,172.38a67.9,67.9,0,0,0-62.95-92.64h-.25a67.88,67.88,0,0,0-67.86,67.86c0,1.87.08,3.72.23,5.56-162.83-48.28-239.25-167-215.66-255.93,6.21-23.43,19.35-33.66,37.57-36.64S236,458.1,261.92,465c51.86,13.87,113.84,37.14,166.6,26.44s86.52-50.06,111.4-90.89c12.44-20.41,22.67-41.22,32-59.05s17.62-32.69,26.06-41.13c17.21-17.21,40-33.93,70.44-40.94A137.37,137.37,0,0,1,699.21,256Zm-.86-2.35a138.6,138.6,0,0,0-30.52,3.49c-31,7.13-54.17,24.16-71.57,41.57-8.86,8.86-17.2,23.84-26.49,41.71s-19.5,38.61-31.87,58.91c-24.73,40.6-58,79.3-109.85,89.8s-113.48-12.48-165.52-26.4c-26-7-49.61-11.67-68.52-8.58s-33.1,14.29-39.48,38.37c-24.09,90.85,53.88,210.69,218.11,259.05l.08,0a67.87,67.87,0,0,0,129.67,18.94l.2.2c129.26-1.55,224-71.31,306.44-173.29,51.43-63.61,69.9-133.14,63.38-192.32S834.34,297,785.81,274.85c-30.19-13.76-56.62-20-79.77-21-2.6-.11-5.17-.16-7.69-.14ZM314.09,224.11a25,25,0,1,1-25,25,25,25,0,0,1,25-25Zm0-2.36a27.35,27.35,0,1,0,27.34,27.34,27.36,27.36,0,0,0-27.34-27.34Z"/><path class="cls-1" d="M822.46,722.76a25,25,0,1,0,25,25,25,25,0,0,0-25-25Zm0-2.37a27.35,27.35,0,1,1-27.35,27.35,27.37,27.37,0,0,1,27.35-27.35Z"/><path class="cls-2" d="M168.4,788.82c9.85.06,23.86,23.57,35.24,59.14,6.44-12.46,12.77-18.73,18-17.79,8.33,1.5,12.66,21.4,11.28,51.89,19.54,3.89,30.75,9.79,30.92,16.28a6,6,0,0,1-.22,1.72h-188c2.26-4.31,9.27-8.49,20.24-12.09-11-17.18-14.72-29.66-10.08-34.33,5.45-5.49,21.69.44,43.3,15.82-3.85-14.58-3.37-24.13,1.34-27,5.59-3.36,16.67,3,30.52,17.57C154.52,820.28,157,791.34,167,789a5.67,5.67,0,0,1,1.38-.16Z"/><path d="M158.5,841.66c.58,5.9,1.39,12.06,2.41,18.41,0,0,8.93,13.25,12.81,22.5l3.87,9.25s-2.73-29.49-19.09-50.16Z"/><path d="M95.83,888l7.69,12.09a28,28,0,0,1-11.64-10.7l4-1.39Z"/><path class="cls-2" d="M855.51,788.82c-9.86.06-23.87,23.57-35.25,59.14-6.44-12.46-12.77-18.73-18-17.79-8.34,1.5-12.66,21.4-11.28,51.89-19.54,3.89-30.76,9.79-30.92,16.28a5.63,5.63,0,0,0,.21,1.72h188c-2.25-4.31-9.26-8.49-20.24-12.09,11.06-17.18,14.72-29.66,10.09-34.33-5.46-5.49-21.7.44-43.31,15.82,3.86-14.58,3.38-24.13-1.34-27-5.59-3.36-16.66,3-30.51,17.57,6.39-39.79,3.9-68.73-6.11-71.09a5.79,5.79,0,0,0-1.38-.16Z"/><path d="M865.41,841.66c-.59,5.9-1.39,12.06-2.41,18.41,0,0-8.93,13.25-12.81,22.5l-3.88,9.25s2.74-29.49,19.1-50.16Z"/><path d="M928.07,888l-7.68,12.09A28.11,28.11,0,0,0,932,889.36l-4-1.39Z"/><path class="cls-3" d="M506.14,365.06c1.22,3.06,1.68,20.15,5.39,25.55,2.88,4.18,21.12,10.69,29.23,13.43,6,7.37,31.17,38,47.84,54.74,4.57,4.59,15.37,15.09,29,3.35,3.81-3.27,11-11.27,16.95-17.85,8-8.77-30.25-21.93-30.25-21.93l-52.07-37.83s-5.52-13.57-8.1-18-5.91-17.88-7.28-21.33-6.2,2.17-6.06,7.17.38,8.73.38,8.73S515,352,512.77,351.19c-6.31-2.21-7.86,10.81-6.63,13.87Z"/><path class="cls-4" d="M682.88,389.08l-48.32,55.2-30.25-21.93s12.28-39.38,17.16-55.2c11.41-37,85.14-8,61.41,21.93Z"/><path d="M558.09,388.77l-5.85-4.25-6.88,10.08s-1.32,1.84,1,1.64c1.91-.16,9-4.13,11.7-7.47Z"/><path d="M635.62,442.15c1.15-8.61-31.31-19.8-31.31-19.8,4.08,8.92,18.75,23.57,24.08,28.72l6.17-6.79a4,4,0,0,0,1.06-2.13Z"/><path class="cls-5" d="M604.31,422.35l30.25,21.93S650.07,449,650,442.15s-18.63-19.06-30-22.6-15.65,2.8-15.65,2.8Z"/><path d="M520.86,365.29c5.36,6.53,7.1,18.69,7.42,23.5.23,3.33-.83,7.72-1.51,10.13l1.81.71c1-1,2.11-3,3.18-6.71,1.27-4.43,1-7.93-1.19-13.84s.61-18,.61-18-13.73.09-10.32,4.24Z"/><path class="cls-3" d="M443.75,789.07l-12.12,77-21.21-2.45s-1.91-57.91.44-78.37,30.71-15.66,32.89,3.81Z"/><path d="M426.65,772.11a19.15,19.15,0,0,1,17.1,17s-17.25,6.37-33.53,4.61c.16-3.19.36-6.06.64-8.42,1.14-9.9,8.38-13.89,15.79-13.15Z"/><path class="cls-6" d="M437.56,827.56l-5.93,38.52-21.21-2.45s-.31-18.74-.24-39.24l27.38,3.17Z"/><path class="cls-3" d="M264.55,883.44,193.3,851.8,201.16,832s56.43,13.14,75.58,20.69,7.18,33.73-12.19,30.79Z"/><path d="M268.78,849.86c2.27.74,10.49,29.52,5.21,32.67a18.91,18.91,0,0,1-9.44.91l-5.91-2.62c2.24-7.72,6.2-20.79,10.14-31Z"/><path class="cls-6" d="M229,867.5l-35.67-15.7L201.16,832s18.18,4.54,38,9.92L229,867.5Z"/><path d="M211.88,834.68c-5.4,5.87-12.13,15.67-14.36,19l-4.21-1.85L201.16,832s4.3,1.08,10.72,2.73Z"/><path class="cls-7" d="M439.79,675.82c16.7,0,30.08,15.12,25.52,32.14-2,17.76-11.78,42-17.32,66.62,5.78,10.38-1.73,15.28-2.49,15.16H412.39c-1.21.31-12.21-1.83-3.61-14.15-1.72-8.36-1.49-24.58-1-40.5L343.89,757.4s9.28,100.86,7.17,114.78-13.5,27.88-28.69,27.88-44.31-11.84-44.31-11.84c-.67,2.21-12.61,4-13.51-4.78,2.64-9.85,2.16-25.88,4.23-33.58,4.64-8.07,14.46.77,14.46,1.32l18.65,6-23.66-80c-14.6-29.44-32.14-58.8-18.32-89l59.31,4.61c40.67-4.44,103.76-17,120.57-17Z"/><path d="M410.29,852.56c7.06,3.71,18.27,7.66,22,9l-.7,4.56-21.21-2.45s-.07-4.43-.13-11.07Z"/><path class="cls-5" d="M405.71,875.55A111.52,111.52,0,0,0,419.83,873c6.33-1.69,4.48-11.49,4.48-11.49-21.41-2.48-18.6,3.12-18.6,14Z"/><path class="cls-7" d="M401.87,900.06c-4.75-8.22-2.62-15.31,3.84-24.51,12.1-1.1,16.67-3.28,18.6-14h5.38s7.17-6.57,10.91,4.85,30.71,13.43,41.18,19.38c11.83,6.72,11.82,14.31,2.93,14.31Z"/><path d="M401.5,882.57A42.31,42.31,0,0,1,410,889c4.59,4.6,13.22,3.84,13.22,3.84H490c2.47,4.06.44,7.23-5.3,7.23H401.87c-3.47-6-3.25-11.42-.37-17.49Z"/><path class="cls-8" d="M436.13,868a9.42,9.42,0,0,0-9,7.57,7.32,7.32,0,0,0,1.75,6.06,4.89,4.89,0,0,0,2.24,1.67,3.08,3.08,0,0,0,2.06-.15,12.21,12.21,0,0,0,4.56-4.15,41.72,41.72,0,0,0,4.56-8.29,9.52,9.52,0,0,0-6.17-2.71ZM451.64,863a7.76,7.76,0,0,1,2.36.36,6.66,6.66,0,0,1,4.42,4.37c.66,2.1-.22,6.9-1.65,9.89a7.77,7.77,0,0,1-1.94-.88c1.32-2.77,2-6.91,1.55-8.37a4.76,4.76,0,0,0-3-3c-5.26-2.18-8.66,5.27-8.69,5.33a49.71,49.71,0,0,1-5.21,9.49c-1.56,2.11-3.35,4-5.51,4.87a5.32,5.32,0,0,1-3.44.19,6.83,6.83,0,0,1-3.28-2.35,9.61,9.61,0,0,1-2.21-7.77,11.37,11.37,0,0,1,11.18-9.27,11.41,11.41,0,0,1,7.09,2.65,9.61,9.61,0,0,1,7.53-5.49,7.5,7.5,0,0,1,.82,0Z"/><path class="cls-8" d="M453.55,871.69a1.07,1.07,0,0,1-.21,2.13,2.56,2.56,0,0,0-2,.63,3,3,0,0,0-.93,2.44,1.07,1.07,0,1,1-2.13,0,5.32,5.32,0,0,1,1.63-4,4.8,4.8,0,0,1,3.68-1.17Z"/><path class="cls-8" d="M460.59,875.73a1.07,1.07,0,0,1-.21,2.13,2.59,2.59,0,0,0-2,.62,3.12,3.12,0,0,0-.92,2.45,1.07,1.07,0,1,1-2.14,0,5.31,5.31,0,0,1,1.63-4,4.77,4.77,0,0,1,3.68-1.17Z"/><path d="M407.5,760.9c2.95,3.25,7.3,7.63,10.61,9.16,5.49,2.53,3.38,5.53,3.38,5.53H408.78a92.16,92.16,0,0,1-1.28-14.69Z"/><path class="cls-5" d="M189.88,828.35a96.68,96.68,0,0,0,2.18,12.17c1.46,5.45,9.89,3.87,9.89,3.87,2.16-18.45-2.67-16-12.07-16Z"/><path class="cls-7" d="M189.88,828.34c.94,10.43,2.82,14.38,12.07,16l0,13.16s9.83,6.19,0,9.4c-6.54,2.14-11.33,4.89-15.32,14.66a85.08,85.08,0,0,1,8.51,5.14c9.46,6.93,8.68,14.13,1.07,13.23l-16-.11L173.6,895l-4.93-11.9.06-55.82c3.33-1.91,16.93-1.84,21.14,1.12Z"/><path d="M183.76,826.43a36.88,36.88,0,0,1-5.48,7.78,11.89,11.89,0,0,0-3.3,9.19l0,40.5c.2,5.86,2.71,9.33,6.76,9.87l19.76-.14c1.71,3.72-.31,6.39-5.26,6.36l-16-.11h-.05c-4.75-.65-11.6-1.57-11.4-13.12V827.23c3.24-1.87,13-1.74,15-.8Z"/><path class="cls-8" d="M199.56,864a7.81,7.81,0,0,0-.69-5.4,7.71,7.71,0,0,0-3.8-3.68,6.28,6.28,0,0,0-5.43.22,4.12,4.12,0,0,0-1.85,1.53,2.58,2.58,0,0,0-.31,1.75A10.62,10.62,0,0,0,190,863a36,36,0,0,0,6,5.52,8.12,8.12,0,0,0,3.53-4.61Zm.95,14a7.11,7.11,0,0,1-.78,1.91,5.75,5.75,0,0,1-4.57,2.8c-1.89.12-5.47-1.32-7.68-3.13a11.05,11.05,0,0,1,.87-1.72c2.05,1.67,5.37,3.09,6.69,3a4.16,4.16,0,0,0,3.12-1.92c2.9-4-2.64-8.33-2.69-8.36a42.79,42.79,0,0,1-6.86-6.31,11.62,11.62,0,0,1-3-5.6,4.64,4.64,0,0,1,.54-2.93,5.87,5.87,0,0,1,2.64-2.26,8.24,8.24,0,0,1,7-.26,9.8,9.8,0,0,1,5.47,11.26,9.77,9.77,0,0,1-3.68,5.39,8.28,8.28,0,0,1,3,7.43c0,.23-.08.46-.13.69Z"/><path class="cls-8" d="M193.88,874.14a.92.92,0,0,1-1,.82h0a.91.91,0,0,1-.83-1,2.21,2.21,0,0,0-.54-1.76,2.66,2.66,0,0,0-2.11-.8.92.92,0,0,1,0-1.84,4.6,4.6,0,0,1,3.48,1.4,4.16,4.16,0,0,1,1,3.18Z"/><path class="cls-8" d="M191.26,877.85a.91.91,0,0,1-1,.83h0a.92.92,0,0,1-.83-1,2.21,2.21,0,0,0-.54-1.76,2.66,2.66,0,0,0-2.11-.8.92.92,0,0,1-.92-.92h0a.92.92,0,0,1,.92-.92h0a4.6,4.6,0,0,1,3.48,1.4,4.1,4.1,0,0,1,1,3.17Z"/><path class="cls-9" d="M423.47,715.59a2.4,2.4,0,0,1,1,.2,2.56,2.56,0,0,1,1.39,1.51,13.91,13.91,0,0,1,.8,2.26,63,63,0,0,1,1.31,7c.8,5.59,1.46,12.83,2,20,1.06,14.38,1.58,28.53,1.58,28.53a1,1,0,0,1,0,.3l-3.21,14.36h-2.42l3.28-14.7c0-.13-.52-14.06-1.57-28.32-.52-7.16-1.18-14.37-2-19.86a64.07,64.07,0,0,0-1.26-6.68,11.83,11.83,0,0,0-.64-1.85,1.51,1.51,0,0,0-.2-.31,4.2,4.2,0,0,0-.9,0c-.69.08-1.63.26-2.78.52-2.3.52-5.4,1.36-9,2.43-7.21,2.13-16.46,5.13-25.58,8.19-18.24,6.11-36,12.44-36,12.44a1.18,1.18,0,0,1-.79-2.23s17.73-6.33,36-12.45c9.13-3.06,18.4-6.08,25.66-8.22,3.64-1.07,6.77-1.93,9.15-2.47,1.2-.27,2.2-.46,3-.56a9.41,9.41,0,0,1,1.08-.11ZM345,689.44a42.36,42.36,0,0,1-5.82,4.41c-10.36,6.58-28.6,12.95-60.9,15.59a33.12,33.12,0,0,1,.05,14.91,29.8,29.8,0,0,1-3.67,8.9c.21.53,5,12.65,10.18,26,2.63,6.82,5.33,13.87,7.47,19.69s3.74,10.32,4.23,12.38c.94,3.93,2.19,13.41,3.23,22s1.87,16.32,1.87,16.32a1.18,1.18,0,0,1-2.35.25h0s-.82-7.67-1.86-16.27-2.34-18.24-3.18-21.77c-.41-1.67-2-6.31-4.15-12.11s-4.83-12.84-7.46-19.65C278,748,274,738,273,735.6a36,36,0,0,1-10.37,9.16c-.31-.73-.6-1.47-.89-2.2C270.86,737,274.58,730,276,723.82a30.6,30.6,0,0,0-.13-14.19q-9.66.72-21,1c0-.79,0-1.58.08-2.37,47-1,70.89-8.74,82.93-16.39.93-.59,1.78-1.18,2.58-1.77l4.51-.64Z"/><path d="M283.24,851.18v18.73s2.59.44,3.79-4,6.11-11.49,6.11-11.49l-9.9-3.21Z"/><path d="M343.89,757.4,340.44,731c13.64,12.12,39.52,9.26,67.29,4.09L343.89,757.4Z"/><path d="M301.89,857.21l12,8.22s3.8-1.26,0-6.75-5.91-27.86-14.35-40.09-21.35-41.4-21.35-41.4l23.66,80Z"/><path class="cls-10" d="M360.41,448s-2,22.22,5,35.32c28.68,53.39-24.82,43.2-24.82,43.2s5.25-75.29,19.78-78.52Z"/><path class="cls-5" d="M350.34,678.72c.42,0,10.28,15.4,3.29,16.37-39.08,5.41-58.5,6.93-96.68,0-6.52-1.18,8.38-18.71,8.81-18.69l84.58,2.32Z"/><path class="cls-4" d="M310.66,533.94,247.4,557.15s24.86,68.1,22.5,99.89c-3.26,16-13.34,23.12-7,27.27,36.3,4.51,50.61,7.5,90.85,0,7.94-18.84,4.16-20.55,6-32.89,0,0,22.86-87.95,24.15-94.27-6.64-4.34-37-22.09-37-22.09l-36.22-1.12Z"/><path class="cls-3" d="M310.66,533.94l36.22,1.12s11.42,6.69,21.84,12.88c-13.69,21.82-26.26,32-32.43,32.9s-38.48-14.11-54.72-36.23l29.09-10.67Z"/><path d="M303.26,647.06s-4.75,12.13-16.41,15.42a93.66,93.66,0,0,1-19.4,2.8,49.46,49.46,0,0,0,2.45-8.23c.09-1.13.13-2.31.15-3.52,9.7-.3,23.84-1.63,33.21-6.47Z"/><path class="cls-6" d="M314.9,530.59s-1.28,52.25-6,83.93-.31,40.82-16,42.25a156.82,156.82,0,0,1-18.36.85c-6.45-.22-20.08.86-12.9-16.42-3.06-16.8-8.91-45.37-12.05-53.51-4.3-11.13-7-24-2.14-30.54s59.1-22.86,67.49-26.56Z"/><path class="cls-3" d="M316.86,488.82l-1.14,41c0,30.64,33,30.51,33,5.28l-6-28.69-25.84-17.55Z"/><path d="M326.53,495.39l16.16,11h0L345.33,519c-5.16.41-12.49,0-18.19-4.49-9.85-7.71-.62-19.12-.62-19.12Z"/><path class="cls-3" d="M357.05,453.57l-3.35,41s-2.95,16.05-14.93,16.05c-8.49,0-21.91-15.91-22-24.19s0-21.59,0-34.53,42-18.92,40.33,1.71Z"/><path d="M350,472.08s4.37,5.46,6.31,5.46.61,5.1-3.28,4.86-6.12-13.41-3-10.32Z"/><path class="cls-10" d="M346.6,447.72s-4.85,24.84-16.27,31.83-17.84,1.14-17.84,1.14l7.71,6.43s17.41-.72,24.41-22.13,1-27.11,1-27.11l1,9.84Z"/><path d="M345.6,554.72s-1.92,33.25-3.19,55.66-.73,37.25-.73,37.25,14-70.22,13.13-83.49-5.64-10.13-9.21-9.42Z"/><path class="cls-6" d="M346.88,535.06s37.82,16.52,39.31,19.15c1.25,2.22-10.88,60.18-17.14,83.25-1.14,4.2,2.58,6.74.86,10.4-5,10.5-23.83,7.27-27.22,6.06s-2.68-6.66-1.24-13.73,12.43-82,11.36-87.6-5.93-17.53-5.93-17.53Z"/><path class="cls-5" d="M314.9,530.59s12.2,7.62,23.82,7.69c11.21.72,6.74-9.26,8.21-11.63,0,0,7.35-3.14,13.5,1s-.31,8.56,1.27,11.27,5.95,12.85-15.4,21.7-42.1,0-47.92-8.57-2.88-17.41-.84-21.12,18-3.28,18-3.28l-.67,2.94Z"/><path class="cls-11" d="M326.26,536.24s-6.05,11.41-4.36,19,8.9,6.36,15.26,4.85c3.28-.78,4.4.61,4.71,2.14a47,47,0,0,1-27.62,0c-1.27-5.05.25-13.33,12-26Z"/><path class="cls-5" d="M330.34,537.35s-10.76.29-13.74,18.41,2.15,32.26-.3,39.4-2.37,6-2.37,6A35.42,35.42,0,0,1,299,603c-8-.85-12.29-4.85-12.29-4.85s5.64-3.85,5.82-14.56-1-28.11,5.16-40.81,17.93-16.56,25.4-14,15.09,9.5,15.09,9.5c-3,.08-5.25-.6-7.84-.94Z"/><path class="cls-10" d="M327.18,426.49a46.41,46.41,0,0,1,7.29.4s-.4.61-1,1.49c5.22-1.23,11.11.14,17.38,6.21,0,0,8.31-9.16,14.76-5.32S360.41,448,360.41,448l-3.36,5.53c0-3.11-1-9.79-7.74-5.93-5.34,3.05-11.31,31.48-28.06,27.65a21.21,21.21,0,0,1-2.11-.61c-.21,4.54,0,9.15,1.06,12.44,3,9,11.28,27.39,2.43,37.81s-33.4,6-38.68-6.14,11.7-29.11,10.7-41.38-6-29.26,6.42-41.53c7.77-7.67,18.87-9.27,26.11-9.39Z"/><path d="M312.21,454.29s6.7-21,20.41-23.55c11.19-2.1,18.27,3.85,18.27,3.85s-5.68-9.13-20.52-8.27-30.87,24.56-18.16,28Z"/><path d="M361.64,536.8a2.63,2.63,0,0,0,.06,2.12,10.79,10.79,0,0,1,1.23,3.12,15.58,15.58,0,0,1-2.86,1.67c-4.43,1.92-12.34,1.11-4.05-2.93a18.12,18.12,0,0,0,5.62-4Z"/><path d="M299.94,612.34a1.23,1.23,0,0,0,1.24,1.55,2,2,0,0,0,1.87-1.55,1.23,1.23,0,0,0-1.24-1.56,2,2,0,0,0-1.87,1.56"/><path d="M298.76,628.08a1.23,1.23,0,0,0,1.24,1.55,2,2,0,0,0,1.87-1.55,1.23,1.23,0,0,0-1.24-1.55,2,2,0,0,0-1.87,1.55"/><path d="M297.05,644.43a1.22,1.22,0,0,0,1.23,1.55,2,2,0,0,0,1.88-1.55,1.23,1.23,0,0,0-1.24-1.55,2,2,0,0,0-1.87,1.55"/><path class="cls-3" d="M389,660.39a2.65,2.65,0,0,0-1.36-.83c-3.42-1.11-23-10-30.67-9.14a53.61,53.61,0,0,0-6.38,1.24,28.93,28.93,0,0,0,2-3.14c3.93-7.16-.45-8.54-1.94-6.74s-19.8,14.56-19.8,14.56l-34.66-4.26-3.95,26.77a211.43,211.43,0,0,0,35.57-4.66s18.73,5.84,28,5.45c6-.25,10.3.09,10.71-3.17.22-1.78,1.61-1.77,5.25-2.1,5.23-.49,4.13-8.72,4.13-8.72s2.59,1.06,7.81-.26c4.25-1.07,6.48-3.52,5.33-5Z"/><path d="M369.3,660.44s9.09.35,14.15,5c-3.5,1.65-6.37.37-7.6.21l-6.55-5.21Z"/><path class="cls-6" d="M247.4,557.15l.53-.5c17.34-15.62,46.45-.15,37.83,30.52-4.84,17.2-22.88,60.82-22.88,60.82l26.84,3.3c-1.56.78-3.27,2.37-5,5.36-3.74,6.57-6.53,15.79-6.7,22.69-8.36.22-16.38.29-22.86.08-6.2-.19-20.59-.88-21.3-18.08-.2-4.8.7-15,1.41-23.5l7-69.83a18.67,18.67,0,0,1,5.08-10.86Z"/><path d="M324.1,655.45l6.74.89-2.56,11.39s-.42,2.11-1.82.35c-1.14-1.44-2.91-8.55-2.36-12.63Z"/><path class="cls-5" d="M296.18,652.08l-3.95,26.79s-7.73,13.45-12.18,8.58-.95-20.87,4.7-30.8,11.43-4.57,11.43-4.57Z"/><path d="M262.88,648l-11.8,3.13s-1.22.13-.37-2,16-10.51,16-10.51l-3.8,9.34Z"/><polygon points="296.18 652.08 299.42 678.44 292.23 678.85 296.18 652.08 296.18 652.08"/><path class="cls-3" d="M524.63,581.21a1.85,1.85,0,0,0-1.54.31c-2.4,1.43-28.28,14.58-28.28,14.58a54.67,54.67,0,0,1,.48-7.84c.59-4.75-2.86-8-4.49-4.88s-5.67,12.09-8.54,16.11-8.72,12.8-8.72,12.8l-32.23,13.42,9.78,25.23c16.29-12,26.15-20.81,26.44-20.2,8-1.85,26-5.61,29.1-9.33,2.17-2.57,5.78-13.06,6.55-21.24L523,588.6c3-3.52,3.09-6.89,1.64-7.39Z"/><path class="cls-6" d="M352,567.26l.21-.68c7.37-22.16,40.32-23.08,48,7.84,4.29,17.34,10.15,64.19,10.15,64.19l25-10.4c-1,1.45-1.66,3.69-1.67,7.12,0,7.56,2.13,17,5.38,23-7.15,4.32-14.09,8.34-19.83,11.37-5.49,2.89-18.34,9.39-27.45-5.21-2.54-4.07-6.82-13.42-10.39-21.13L353,579.22a18.76,18.76,0,0,1-.95-12Z"/><path class="cls-5" d="M441.3,625.71,451.1,651s-.08,15.51-6.34,13.47-11.15-17.67-11.14-29.1,7.68-9.62,7.68-9.62Z"/><path d="M410.33,638.61l-8.71,8.55s-1,.71-1.3-1.53,8.7-17,8.7-17l1.31,10Z"/><polygon points="441.31 625.71 457.39 646.36 451.1 650.94 441.31 625.71 441.31 625.71"/><path d="M473.54,612.29l.52,8.62s-.43,1-1.93-.55-5.79-5-5.79-5l7.2-3.1Z"/><path d="M494.81,596.1s-1.86,7.35-5.41,10.36S483.2,621,485.65,624s4.4,2.66,4.67,2.22-.47-10.74,2.2-15.46a74.35,74.35,0,0,1,8.19-11.1c1.57-1.85-5.9-3.55-5.9-3.55Z"/><path class="cls-2" d="M497.94,281.87a4.66,4.66,0,0,0-2.07,1c-3.21,2.65-8,6.84-8.7,8.55-.95,2.45-.18,9.37.19,12,.34,2.44,2,13.06,3.54,15s12.14,6.49,14.57,7.47c1.18.48,4.41,1.73,7.6,2.79l9.7,95.27c2,14,19.78,11.37,17.82-2.34L525.9,327.19c3.3-2.19,6.87-4.88,8.07-5.82,1.95-1.52,10.32-8.27,11.21-10.56.94-2.45-.46-13.76-.82-16.36-.34-2.44-1.37-8.68-2.92-10.59-1.07-1.33-5.84-3.84-9.8-5.43-3.15-1.26-6.71.78-6.15,4.66,1.06,7.46,1.65,13.52,1.45,14.34-.38,1.49-6.73,8.89-9.69,9.37s-11-5-11.87-6.42c-.43-.69-1.6-7.08-2.69-14.71-.41-2.88-2.6-4.2-4.75-3.8Z"/><path d="M540.6,421.55a10.71,10.71,0,0,0-5-.8l-2.89.23s-.9-.36.29-1.8,3.79-21.64,3.79-21.64l3.85,24Z"/><path d="M525.9,327.19,521.07,331s-1,1.06.75,1.94,5.48,3.26,5.48,3.26l-1.4-9Z"/><path d="M487.18,647.82H402.67a5.81,5.81,0,0,0,0,11.61h84.51a5.81,5.81,0,0,0,0-11.61Z"/><path class="cls-12" d="M593.22,570.36H474.49c-5.85,0-8.9,4.95-10.56,10.55l-20.08,68c-1.66,5.6,1.54,10.55,7.38,10.55H567.81c5.85,0,11.54-4.95,13.19-10.55l20.09-68c1.66-5.6-2-10.55-7.87-10.55Z"/><path class="cls-5" d="M529.91,605.4a10.76,10.76,0,0,1,3.76.71A11,11,0,0,0,539.22,622a11,11,0,1,1-9.42-16.6h.11Z"/><path class="cls-13" d="M386,283.14h0A30.88,30.88,0,0,1,417,314h0A30.89,30.89,0,1,1,386,283.14Zm-5.4-52.67c-3.64,0-6,3-6.56,6.56l-3.81,24.76a53.33,53.33,0,0,0-9.92,4.18L340.1,251.11c-2.94-2.15-6.72-2.57-9.29,0l-7.66,7.66c-2.57,2.58-2.15,6.36,0,9.29l15.1,20.59a54.59,54.59,0,0,0-3.77,9.48L309.07,302c-3.59.55-6.56,2.93-6.56,6.57v10.83c0,3.64,3,6,6.56,6.57l26,4a53.64,53.64,0,0,0,3.73,8.64L323.15,360c-2.15,2.93-2.57,6.71,0,9.29l7.66,7.66c2.57,2.57,6.35,2.15,9.29,0L361.77,361a53.11,53.11,0,0,0,8.21,3.34l4.1,26.64c.55,3.59,2.92,6.56,6.56,6.56h10.84c3.64,0,6-3,6.57-6.56l4.09-26.64a54.12,54.12,0,0,0,8.21-3.34L432,376.94c2.93,2.15,6.71,2.57,9.28,0l7.66-7.66c2.58-2.58,2.16-6.36,0-9.29l-15.65-21.34a52.49,52.49,0,0,0,3.73-8.65l26-4c3.6-.55,6.57-2.93,6.57-6.57V308.6c0-3.63-3-6-6.57-6.56l-25.41-3.91a53.05,53.05,0,0,0-3.77-9.48L449,268.06c2.16-2.94,2.58-6.72,0-9.29l-7.66-7.66c-2.57-2.57-6.35-2.15-9.28,0L411.77,266a52.66,52.66,0,0,0-9.92-4.18L398.05,237c-.56-3.59-2.93-6.56-6.57-6.56Z"/><path d="M371.62,354.19,361.77,361a53.31,53.31,0,0,0,5.65,2.46l4.2-9.31Z"/><path d="M400.5,354.19l9.85,6.85a52.43,52.43,0,0,1-5.65,2.46l-4.2-9.31Z"/><path d="M370.2,272.81,360.35,266a50.35,50.35,0,0,1,5.46-2.58l4.39,9.42Z"/><path d="M401.93,272.81l9.84-6.84a41.65,41.65,0,0,0-5.5-2.61l-4.34,9.45Z"/><path d="M336.49,292.44a57.33,57.33,0,0,0-2,5.69l11.7-2.6-9.69-3.09Z"/><path d="M335.07,330a51.41,51.41,0,0,0,2.22,5.63l9.48-3L335.07,330Z"/><path d="M435.63,292.44a52.65,52.65,0,0,1,2,5.69l-11.7-2.6,9.69-3.09Z"/><path d="M437.06,330a53.56,53.56,0,0,1-2.23,5.63l-9.48-3L437.06,330Z"/><path d="M355.2,315.12a29.34,29.34,0,0,0-.77,6.66c0,16.81,14.16,30.44,31.63,30.44s31.63-13.63,31.63-30.44a29.18,29.18,0,0,0-.76-6.65,30.88,30.88,0,0,1-61.73,0Z"/><path class="cls-4" d="M564.19,176.61h0a30.89,30.89,0,0,1,30.88,30.88h0a30.89,30.89,0,1,1-30.9-30.88Zm-5.39-52.67c-3.64,0-6,3-6.57,6.57l-3.8,24.75a53.72,53.72,0,0,0-9.92,4.18l-20.26-14.86c-2.93-2.15-6.71-2.57-9.28,0l-7.67,7.67c-2.57,2.57-2.15,6.35,0,9.28l15.11,20.59a53.15,53.15,0,0,0-3.77,9.49l-25.41,3.9c-3.6.56-6.57,2.93-6.57,6.57v10.84c0,3.63,3,6,6.57,6.56l26,4a54.15,54.15,0,0,0,3.73,8.64L501.3,253.46c-2.15,2.94-2.57,6.72,0,9.29l7.67,7.66c2.57,2.57,6.35,2.15,9.28,0l21.68-15.9a53,53,0,0,0,8.2,3.34l4.1,26.64c.55,3.59,2.93,6.56,6.57,6.56h10.84c3.63,0,6-3,6.56-6.56l4.1-26.64a53,53,0,0,0,8.2-3.34l21.68,15.9c2.93,2.15,6.71,2.57,9.29,0l7.66-7.66c2.57-2.57,2.15-6.36,0-9.29l-15.65-21.34a54.15,54.15,0,0,0,3.73-8.64l26-4c3.59-.55,6.56-2.93,6.56-6.57V202.08c0-3.64-3-6-6.56-6.57l-25.42-3.91a53.77,53.77,0,0,0-3.76-9.48l15.1-20.59c2.15-2.93,2.57-6.71,0-9.28l-7.66-7.67c-2.58-2.57-6.36-2.15-9.29,0l-20.25,14.86a54,54,0,0,0-9.92-4.18L576.2,130.5c-.55-3.59-2.93-6.56-6.56-6.56Z"/><path d="M549.77,247.67l-9.84,6.84a52.28,52.28,0,0,0,5.64,2.46l4.2-9.3Z"/><path d="M578.66,247.67l9.84,6.84a52.28,52.28,0,0,1-5.64,2.46l-4.2-9.3Z"/><path d="M548.35,166.28l-9.84-6.84a51.11,51.11,0,0,1,5.45-2.58l4.39,9.42Z"/><path d="M580.08,166.28l9.85-6.84a41.79,41.79,0,0,0-5.51-2.61l-4.34,9.45Z"/><path d="M514.65,185.91a52.65,52.65,0,0,0-2,5.69l11.7-2.6-9.69-3.09Z"/><path d="M513.22,223.48a56.54,56.54,0,0,0,2.22,5.62l9.48-3-11.7-2.6Z"/><path d="M613.79,185.91a54.83,54.83,0,0,1,2,5.69l-11.7-2.6,9.7-3.09Z"/><path d="M615.21,223.48A54.21,54.21,0,0,1,613,229.1l-9.48-3,11.7-2.6Z"/><path d="M533.35,208.59a29.34,29.34,0,0,0-.77,6.66c0,16.81,14.17,30.44,31.64,30.44s31.63-13.63,31.63-30.44a29.19,29.19,0,0,0-.77-6.65,30.88,30.88,0,0,1-61.73,0Z"/><polygon points="423.48 673.85 443.91 673.85 404.53 900.06 394.24 900.06 423.48 673.85 423.48 673.85"/><polygon points="570.19 673.85 549.76 673.85 589.13 900.06 599.43 900.06 570.19 673.85 570.19 673.85"/><path class="cls-14" d="M406.15,659.43h176c5.73,0,10.34,4.35,10.34,9.74s-4.61,9.75-10.34,9.75h-176c-5.73,0-10.34-4.35-10.34-9.75s4.61-9.74,10.34-9.74Z"/><path d="M494.52,786.66l87.93,80.24H406.59l87.93-80.24ZM429.27,724h130.5l-65.25,59.55L429.27,724Zm-2.94-2.69-.47.46h-.69v.67l-.49.47.49.45V724h.7l66.95,61.1-92.07,84H584.89l.51.47.48-.47h.67v-.66L587,868l-.49-.44v-.65h-.7l-89.63-81.79,69.39-63.33H426.83l-.5-.46Z"/><path class="cls-3" d="M851.55,815l9.33,17.61c-4.83,9.62-15.69,17.67-24.22,19.63l-16.79-23.29,11.1-13,20.58-.91Z"/><path d="M831,815.89l-11.1,13s26.06,2.11,35.61-6.54L851.55,815l-20.58.91Z"/><path class="cls-5" d="M875.08,840a114.51,114.51,0,0,1-13.15,7.23c-6.24,2.79-11.19-6.37-11.19-6.37,15.75-16.11,17.16-9.72,24.34-.86Z"/><path class="cls-12" d="M875.08,840c-10.55,7.07-15.7,8.31-24.34.86l-12.4,10.05s-13.34-4.55-8.85,7.19c2,5.36-.55,13.16-4.33,21.16A129.53,129.53,0,0,0,812,885.09c-12.37,7-12.35,15-3.06,15l31.92-1.68,46.92-36.84c-1.56-9.8-6.8-19.32-12.72-21.59Z"/><path class="cls-15" d="M837.81,859.44a9.55,9.55,0,0,1,6.48-1.29,9.44,9.44,0,0,1,5.7,2.94,7.66,7.66,0,0,1,1.85,6.33,4.92,4.92,0,0,1-1.05,2.72,3.1,3.1,0,0,1-1.89,1c-1.61.32-4-.18-6.35-1.11a42,42,0,0,1-8.67-4.78,9.94,9.94,0,0,1,3.93-5.84Zm-16.45,4.33a8.08,8.08,0,0,0-1.9,1.64,7,7,0,0,0-1.45,6.32c.59,2.22,4,6,7,7.83a5.54,5.54,0,0,0,.94-2c-2.72-1.71-5.36-4.82-5.77-6.37a5,5,0,0,1,1-4.33c3.43-4.88,10.61-.19,10.66-.15a51.89,51.89,0,0,0,9.9,5.46c2.57,1,5.22,1.68,7.59,1.22a5.44,5.44,0,0,0,3.15-1.76,7.24,7.24,0,0,0,1.59-3.9,10.07,10.07,0,0,0-2.4-8.1,11.58,11.58,0,0,0-7.06-3.67,11.73,11.73,0,0,0-8,1.73,11.91,11.91,0,0,0-4.78,6.32,10.06,10.06,0,0,0-9.72-.65c-.26.13-.5.28-.74.43Z"/><path d="M882.12,846.37c-1.78,3.27-3.79,7.24-4.07,9.93a11.59,11.59,0,0,1-5.79,9.19L839,892.5H803.42c-2.59,4.24-.47,7.56,5.54,7.56h25.89c4,0,7.24-.63,9.82-2.53l43.13-36a39.9,39.9,0,0,0-5.68-15.17Z"/><path class="cls-15" d="M824.14,873a1.12,1.12,0,0,0-.2,1.57h0a1.13,1.13,0,0,0,1.57.2,2.68,2.68,0,0,1,2.16-.59,3.21,3.21,0,0,1,2.18,1.64,1.12,1.12,0,0,0,1.54.35,1.13,1.13,0,0,0,.35-1.55h0a5.59,5.59,0,0,0-3.7-2.65,5,5,0,0,0-3.9,1Z"/><path class="cls-15" d="M819.21,879.5a1.1,1.1,0,0,0-.19,1.56h0a1.11,1.11,0,0,0,1.56.19,2.72,2.72,0,0,1,2.15-.59,3.24,3.24,0,0,1,2.19,1.65,1.13,1.13,0,0,0,1.54.35h0a1.13,1.13,0,0,0,.35-1.55h0a5.58,5.58,0,0,0-3.7-2.65,5,5,0,0,0-3.9,1Z"/><path class="cls-12" d="M662.86,490s-9.8,168-11,184.76c-.9,12.64,4.3,101.36,3.4,143.24-11.75,14.13,3.43,22.28,4.31,22.23H694.2c5.37-5.38,16.33-5.33,10.38-27.51,7.73-22.84,15.91-60.1,8.45-134.56l10-71.28c6.6,33.24,18.07,70.92,20.2,76.87,4.27,11.94,42.63,90,58.67,128.67-5.07,17.67,18,16.51,18,16.51L851.55,815c2.76-7.09,10.28-9.76-4.1-27.67-.27-19.25-17-77.21-48.47-119.64l-4.27-60.79c-2.67-36-5.69-73.2-7.42-81.28-3.58-16.71-8.42-35.6-8.42-35.6Z"/><path class="cls-3" d="M694.19,840.23l-3.85,19.54c-9.8,4.43-23.31,3.85-31.17,0l.4-19.54,16.83-3.14,17.79,3.14Z"/><path d="M676.4,837.09l-16.83,3.14s20.13,8.93,33,8.22l1.62-8.22-17.79-3.14Z"/><path class="cls-5" d="M696.74,874.44A116.46,116.46,0,0,1,682,871.78c-6.61-1.77-4.68-12-4.68-12,22.38-2.59,19.44,3.27,19.44,14.67Z"/><path class="cls-12" d="M700.76,900.06c5-8.59,2.73-16-4-25.62-12.65-1.16-17.43-3.44-19.44-14.67h-16s-7.49-11.93-11.4,0-32.11,19.11-43,25.32c-12.37,7-12.36,15-3.07,15Z"/><path class="cls-15" d="M661.4,514.78c0,.55-.09,1.67-.13,2.25a409.37,409.37,0,0,0,89.58,6.73,57.9,57.9,0,0,0,11.39,15.58,35.77,35.77,0,0,0,16.35,9.27l17.86,117.24s3,8.45,2.53,1.82L780.92,549.05a30.25,30.25,0,0,0,9.11,0c-.06-.71-.13-1.52-.19-2.2-11.23,1.8-19.83-3.15-26.07-9.09a56.21,56.21,0,0,1-10.47-14.07c10.63-.47,21.66-1.43,32.9-3-.16-.73-.32-1.45-.49-2.19-52.49,7.37-100.4.87-124.31-3.67Z"/><path class="cls-15" d="M650.33,865.48a9.53,9.53,0,0,1,6.17,2.38,9.43,9.43,0,0,1,3.24,5.53,7.65,7.65,0,0,1-1.82,6.34,5,5,0,0,1-2.35,1.74,3.22,3.22,0,0,1-2.15-.15c-1.53-.59-3.26-2.28-4.77-4.33a42.6,42.6,0,0,1-4.76-8.68,9.93,9.93,0,0,1,6.44-2.83Zm-16.21-5.15a8.17,8.17,0,0,0-2.47.37,7,7,0,0,0-4.62,4.57c-.69,2.19.22,7.21,1.72,10.35a8.67,8.67,0,0,0,2-.93c-1.37-2.89-2.1-7.21-1.62-8.75a5,5,0,0,1,3.16-3.11c5.5-2.28,9.06,5.51,9.08,5.57a51.84,51.84,0,0,0,5.45,9.91c1.63,2.21,3.51,4.22,5.76,5.1a5.6,5.6,0,0,0,3.6.2,7.25,7.25,0,0,0,3.43-2.46A10.06,10.06,0,0,0,662,873a11.9,11.9,0,0,0-11.69-9.68,11.84,11.84,0,0,0-7.41,2.78,10.07,10.07,0,0,0-7.88-5.75,8.06,8.06,0,0,0-.85,0Z"/><path class="cls-15" d="M709.89,630.26a1.11,1.11,0,0,0-1.07.88S706,643.9,703.17,657c-1.42,6.54-2.86,13.16-4,18.31s-1.87,8.67-2,9.49c-.05.3-.11.86-.23,1.93s-.28,2.55-.48,4.41c-.4,3.7-.94,8.86-1.59,15-1.28,12.23-2.95,28.29-4.61,44.28-3.33,32-6.6,63.62-6.6,63.62v26.23h2.23V814.18s3.27-31.63,6.59-63.57c1.67-16,3.34-32.05,4.63-44.27.64-6.12,1.18-11.27,1.58-15,.2-1.85.36-3.34.48-4.41s.21-1.79.21-1.8c.08-.45.88-4.25,2-9.39s2.55-11.77,4-18.31c2.85-13.08,5.64-25.84,5.64-25.84a1.11,1.11,0,0,0-.85-1.33h0l-.26,0Z"/><path d="M708.45,552.41s-6.1,2.69-6.1,12.83.89,66.85,8,82.07c2.13,4.52,4,7.91,5.49,10.48L723,606.88l-14.59-54.47Z"/><path d="M701.14,881.78a44,44,0,0,0-8.85,6.71c-4.8,4.8-13.82,4-13.82,4h-80.2c-2.58,4.24-.46,7.56,5.55,7.56h96.94c3.63-6.29,3.4-11.94.38-18.28Z"/><path class="cls-15" d="M632.12,869.38a1.1,1.1,0,0,0-1,1.21h0a1.12,1.12,0,0,0,1.22,1,2.76,2.76,0,0,1,2.14.65,3.27,3.27,0,0,1,1,2.56,1.12,1.12,0,0,0,1.12,1.12h0a1.12,1.12,0,0,0,1.12-1.12h0A5.51,5.51,0,0,0,636,870.6a5,5,0,0,0-3.85-1.22Z"/><path class="cls-15" d="M624.76,873.59a1.12,1.12,0,0,0-1,1.22h0a1.12,1.12,0,0,0,1.22,1,2.72,2.72,0,0,1,2.14.66,3.23,3.23,0,0,1,1,2.56,1.12,1.12,0,0,0,2.23,0,5.58,5.58,0,0,0-1.7-4.23,5.05,5.05,0,0,0-3.85-1.22Z"/><path d="M713.81,771.12c-8.4,18.91-28,42.89-22.68,42.36,6.33-.64,13.45-.75,13.45-.75a202.59,202.59,0,0,0,9.23-41.61Z"/><path d="M777.48,758c9.29,20,18.42,40,24.43,54.45l18.1-8.89s4.47-5.07-3.29-5.37c-5-.19-25.39-23.59-39.24-40.19Z"/><path class="cls-5" d="M665.55,477.18c-.45,0-8.83,17-1.53,18.05,40.78,5.66,81.32,8.74,121.33,1.49,6.83-1.24-8.5-19.54-9-19.54Z"/><path class="cls-4" d="M711.24,328.25,777,352.51s-8,79.22-2.5,104.44c11.16,8,15.1,24.16,8.42,28.5-38,4.72-76.52,7.84-118.48,0-10.25-.9-14.53-15-10.09-29.32,0,0-18.79-97-20-103.62,7-4.53,39-23.09,39-23.09l37.88-1.17Z"/><path class="cls-3" d="M704.55,281.08l1.19,42.82c0,32-34.47,31.89-34.47,5.52l6.27-30,27-18.35Z"/><path d="M694.44,288l-16.9,11.48h0l-2.75,13.19c5.39.43,13.05,0,19-4.69,10.29-8.06.64-20,.64-20Z"/><path class="cls-3" d="M664.86,244.23v42.82s-.75,15.22,16.78,16.78,22.91-16.63,23.06-25.29,0-22.56,0-36.1-39.84-19.85-39.84,1.79Z"/><path d="M669.89,263.59s-4.56,5.7-6.59,5.7-.64,5.33,3.42,5.08,6.41-14,3.17-10.78Z"/><path d="M697.1,353.44l9.12-5.92s-3.23-6.83-6.59-5.94-5.36,8.17-2.53,11.86Z"/><path d="M685.79,353.65l-11.37-5.92s.63-6.83,4.34-5.93,8.46,8.17,7,11.85Z"/><path d="M716.55,330.2c-.28,6.17-1.64,14.78-5.85,25.63,0,0,21.25-10.18,27-17.83l-21.13-7.8Z"/><path d="M692.5,361.43a.87.87,0,0,0-.88.68c-4,17.24-2.08,40.55.68,59.72,1.37,9.59,3,18.14,4.11,24.35.57,3.1,1.05,5.62,1.33,7.37.14.88.23,1.57.27,2a2.88,2.88,0,0,1,0,.36c-7,6-8.78,16.26-6.36,24.64a88.89,88.89,0,0,0,3.68,8.86l2.48.17a73.36,73.36,0,0,1-4-9.26c-2.21-7.64-.56-17.46,6.06-22.87a.92.92,0,0,0,.39-.9,4.79,4.79,0,0,0,0-.75c0-.56-.15-1.29-.29-2.19-.29-1.81-.76-4.33-1.34-7.44-1.15-6.2-2.73-14.71-4.1-24.25-2.74-19.06-4.62-42.21-.7-58.95a1.35,1.35,0,0,0-.87-1.46,1.21,1.21,0,0,0-.41-.09Z"/><path class="cls-5" d="M673.34,319.15c-16.55,4.67-4.31,38.15,1.38,37.2,4.07-.67-.84-13.76,4.13-13.13,4.25.54,6.29,7.73,6.8,9.82,0,.16.14.61.14.61.8,4.2.88,15,5.92,15.31,4,.27,3.63-25.31,8.37-25.95s4.89,11.45,9.12,13.13,13-14.56,10.54-23.95-14.16-13-14.16-13c.07.39.87,11.31-8.25,17.23-3.35,2.17-4.68,6.72-4.59,10.6a10.43,10.43,0,0,1-5.11,0,20.63,20.63,0,0,0-8.53-10.4c-6-3.39-5.76-17.47-5.76-17.47Z"/><path d="M699.7,382.79a1.3,1.3,0,0,1-1.31,1.63,2.05,2.05,0,0,1-1.93-1.63,1.3,1.3,0,0,1,1.31-1.62,2.05,2.05,0,0,1,1.93,1.62"/><path d="M700.75,404.71a1.31,1.31,0,0,1-1.32,1.63,2.05,2.05,0,0,1-1.93-1.63,1.3,1.3,0,0,1,1.31-1.62,2.05,2.05,0,0,1,1.94,1.62"/><path d="M703,428.39a1.31,1.31,0,0,1-1.31,1.63,2.06,2.06,0,0,1-1.94-1.63,1.3,1.3,0,0,1,1.32-1.62,2,2,0,0,1,1.93,1.62"/><path d="M708.08,449.88a1.31,1.31,0,0,1-1.32,1.62,2.05,2.05,0,0,1-1.93-1.62,1.31,1.31,0,0,1,1.31-1.63,2.07,2.07,0,0,1,1.94,1.63"/><path class="cls-10" d="M701,281.12s.21,10.76-2.85,16.14-10.87,10-24.58,8.76-15.72-7.91-15.19-13.72,6.22-6.22,6.12-9,1.47-5.38,4.32-5.49,4.33,2.11,2.85,2.43-3.06-1.8-3.06,1.69,2.85,7.91,8,7,7.7-9.6,5.06-9.07-5.59,1.79-5.59.42,4.12-3.69,12.77-4.22,8.54,9.18,9.18,7.17a3.36,3.36,0,0,1,2.95-2.11Z"/><path class="cls-10" d="M670.23,241.14c.53-4.75,5.91-12.14,9.18-5.28s.42,18,7.49,21.52S698.09,260,698.09,260s1.26,9.81,3.48,11.08,12.34-5.49,12.34-5.49,6.55-6.85,7.71-15.29-4.67-17.44-12.48-25.26c-17.73-17.73-38.27-.8-38.27-.8s-6.12-4.23-10.13,2.21-1.8,19.73.1,24.9a42.39,42.39,0,0,0,4.22,8.55l-.2-15.69c0-3.39,3.17-3.09,5.37-3.09Z"/><path class="cls-10" d="M712,275c1.79,3,3.43,5.52,5.81,6.57S711,295,705.93,289.78s-.39-13.18,6-14.82Z"/><path class="cls-3" d="M715.66,275.18c-2.22,5-7.1,7.61-10.91,5.91s-5.08-7.1-2.86-12.07,7.11-7.62,10.91-5.92,5.08,7.11,2.86,12.08Z"/><path d="M705.78,275.63c0-.26-.45-4.66,1.68-6.82s5-.38,4.66.48-2.54.82-2,2.17.81,7.14-4.32,4.17Z"/><path class="cls-10" d="M677.75,233.18s5.5,2.81,4.54,12.75,3.77,20.86,15.49,16.53,9.69-9.73,9.69-9.73-6.62,9.34-15.25,8.64-8.72-14.69-7-19.59-3.59-10.46-7.49-8.6Z"/><path class="cls-3" d="M831.69,408.84c-8.47-2-22.7,29.28-22.7,29.28l-42.63,48.23,12.27,17.37,1.23-.82s43.2-28.67,63.89-45.66c5-4.12,16.49-13.87,6.11-28.57-2.89-4.1-10.17-12-16.15-18.57a4,4,0,0,0-2-1.26Z"/><path class="cls-4" d="M783.37,356.73l50.34,53.37-24.72,28s-38-16-53.31-22.35c-35.78-14.89.16-85.51,27.69-59Z"/><path d="M771.15,480.92l-4.79,5.43,9.38,7.8s1.7,1.49,1.73-.86c0-1.92-3.25-9.34-6.32-12.37Z"/><path d="M831.69,408.84c-8.47-2-22.7,29.28-22.7,29.28,9.27-3.21,25.25-16.42,30.89-21.22-2.07-2.3-4.18-4.61-6.17-6.8a4,4,0,0,0-2-1.26Z"/><path class="cls-5" d="M809,438.12l24.72-28s6.21-15-.65-15.56-20.75,16.72-25.36,27.73S809,438.12,809,438.12Z"/><path class="cls-3" d="M766.36,486.35s-25.22,10.27-33.23,15.74-19.52,30.05-21.9,33.92,2.51,5.36,8.59,2.33,7.7-6.16,7.7-6.16,5.7,8.78,11.11,5c3.76-2.65,5.08-3.81,6.75-2.29,3.07,2.8,6.92-1.07,12.86-5.74,9.16-7.2,20.39-25.39,20.39-25.39,3.25-15.21-8-11.87-12.27-17.37Z"/><path class="cls-3" d="M766.36,486.35s-31.35,2.79-34.26,2.29-6,4.41,3.67,8.05,16.39,1.83,18.47.9,12.12-11.24,12.12-11.24Z"/><path d="M729.52,521.81s-8.42,7.8-9.45,16.41c4.71-1.29,6.41-4.87,7.45-6l2-10.37Z"/></g></svg>